<?xml version="1.0" ?>
<svg width="64" height="64">
    
    <!-- arrows -->
    <polygon points="0,31.5 8,24 8,30 12,30 12,33 8,33 8,39" fill="lime" stroke="black" />
    <polygon points="63,31.5 55,24 55,30 51,30 51,33 55,33 55,39" fill="lime" stroke="black" />
    <polygon points="31.5,0 24,8 30,8 30,12 33,12 33,8 39,8" fill="lime" stroke="black" />
    <polygon points="31.5,63 24,55 30,55 30,51 33,51 33,55 39,55" fill="lime" stroke="black" />

    <circle cx="31.5" cy="31.5" r="16" fill="yellow" stroke="black" />

</svg>
