<?xml version="1.0" ?>
<svg width="64" height="64">
    <!-- "wrist" -->
    <polygon stroke="none" fill="white" points="24,56 20,40 48,40 46,56" />
    <line x1="24" y1="56" x2="20" y2="40" stroke="black" />
    <line x1="46" y1="56" x2="48" y2="40" stroke="black" />

    <!-- put object here -->
    <rect x="12" y="20" width="40" height="30" fill="yellow" stroke="black"/>
    <rect x="20" y="30" width="10" height="8" fill="cyan" stroke="black"/>
    <circle cx="40" cy="40" r="5" fill="orange" stroke="black" />

    <!-- "fingers" -->
    <ellipse cx="12" cy="28" rx="4" ry="6" stroke="black" fill="white" />
    <ellipse cx="24" cy="18" rx="4" ry="8" stroke="black" fill="white" />
    <ellipse cx="32" cy="16" rx="4" ry="8" stroke="black" fill="white" />
    <ellipse cx="40" cy="16" rx="4" ry="6" stroke="black" fill="white" />
    <ellipse cx="48" cy="20" rx="4" ry="6" stroke="black" fill="white" />

    <!-- arrows -->
    <polygon points="0,0 24,4 8,8 4,24" fill="lime" stroke="black" />
    <polygon points="63,0 39,4 55,8 59,24" fill="lime" stroke="black" />
    <polygon points="0,63 24,59 8,55 4,39" fill="lime" stroke="black" />
    <polygon points="63,63 39,59 55,55 59,39" fill="lime" stroke="black" />
</svg>
